<svg width="24" height="24" viewBox="0 0 24 24" fill="none" xmlns="http://www.w3.org/2000/svg">
<path d="M14.2611 0.219423L13.5411 0.11837C11.3772 -0.194062 9.16907 0.11503 7.17415 1.00961C5.17923 1.90419 3.4797 3.34741 2.27368 5.171C0.990512 6.91413 0.225581 8.98415 0.0669211 11.1428C-0.0917391 13.3015 0.362319 15.4611 1.37684 17.3731C1.48067 17.5647 1.54531 17.7751 1.567 17.992C1.58869 18.2089 1.56698 18.4279 1.50316 18.6363C0.985263 20.4173 0.505263 22.211 0 24.0931L0.631579 23.9036C2.33684 23.4489 4.04211 22.9942 5.74737 22.5773C6.10729 22.5025 6.48141 22.5377 6.82105 22.6784C8.35099 23.425 10.0229 23.8358 11.7247 23.8832C13.4265 23.9305 15.1186 23.6133 16.6877 22.9528C18.2568 22.2923 19.6664 21.3038 20.822 20.0537C21.9776 18.8036 22.8525 17.3207 23.3878 15.7047C23.9232 14.0886 24.1066 12.3767 23.9259 10.6839C23.7452 8.99114 23.2045 7.35657 22.3401 5.88994C21.4757 4.4233 20.3076 3.15853 18.9142 2.18051C17.5207 1.20248 15.9342 0.533829 14.2611 0.219423ZM17.4442 16.7921C16.9851 17.2031 16.4253 17.4851 15.8218 17.6093C15.2182 17.7336 14.5925 17.6957 14.0084 17.4994C11.362 16.7531 9.066 15.0926 7.52842 12.8131C6.94127 12.0067 6.46937 11.1224 6.12632 10.1857C5.94044 9.6423 5.90693 9.05833 6.0294 8.49719C6.15187 7.93605 6.42565 7.41916 6.82105 7.00258C7.01354 6.75692 7.27555 6.57491 7.57295 6.48029C7.87036 6.38566 8.18936 6.38279 8.48842 6.47205C8.74105 6.53521 8.91789 6.90153 9.14526 7.17942C9.33053 7.70153 9.54526 8.211 9.78947 8.70784C9.97443 8.96112 10.0517 9.27728 10.0043 9.5873C9.95701 9.89733 9.78895 10.176 9.53684 10.3626C8.96842 10.8678 9.05684 11.2847 9.46105 11.8531C10.3542 13.1409 11.5874 14.1554 13.0232 14.7836C13.4274 14.9605 13.7305 14.9984 13.9958 14.5815C14.1095 14.4173 14.2611 14.2784 14.3874 14.1268C15.12 13.2047 14.8926 13.2173 16.0547 13.7226C16.4253 13.8784 16.7832 14.0594 17.1284 14.2657C17.4695 14.4678 17.9874 14.6826 18.0632 14.9857C18.1361 15.3146 18.1169 15.6572 18.0077 15.9759C17.8985 16.2946 17.7035 16.577 17.4442 16.7921Z" fill="#EBEBDE"/>
</svg>
